<svg id="Layer_1" data-name="Layer 1" xmlns="http://www.w3.org/2000/svg" xmlns:xlink="http://www.w3.org/1999/xlink" viewBox="0 0 500 500"><defs><style>.cls-1{fill:#27303b;}.cls-2{fill:#fff;}</style><symbol id="New_Symbol_1" data-name="New Symbol 1" viewBox="0 0 29.09 16.07"><path class="cls-1" d="M11.85,1.71H6.76V16.07H5.09V1.71H0V0H11.85ZM27.44,3l-4.9,13.08H21L16.07,2.57v13.5H14.42V0h2.07l5.27,13.74L27,0h2.07V16.07H27.44Z"/></symbol></defs><title>Logo 1x1 White 8px</title><use width="29.09" height="16.07" transform="translate(397.91 128.41)" xlink:href="#New_Symbol_1"/><rect class="cls-2" x="3" y="3" width="494" height="494" rx="40"/><path class="cls-1" d="M457,500H43A43,43,0,0,1,0,457V43A43,43,0,0,1,43,0H457a43,43,0,0,1,43,43V457A43,43,0,0,1,457,500ZM43,6A37,37,0,0,0,6,43V457a37,37,0,0,0,37,37H457a37,37,0,0,0,37-37V43A37,37,0,0,0,457,6Z"/><path class="cls-1" d="M156.85,391.94h15.33v3.28H156.85v24.15h-3.29V395.22H110.62v-1.83l42.28-62.58h3.95Zm-41.12,0h37.83V334.76l-5.11,8.39Z"/><path class="cls-1" d="M231.6,391.94h15.33v3.28H231.6v24.15h-3.28V395.22H185.38v-1.83l42.27-62.58h3.95Zm-41.12,0h37.84V334.76l-5.11,8.39Z"/><path class="cls-1" d="M306.35,391.94h15.33v3.28H306.35v24.15h-3.28V395.22H260.13v-1.83l42.27-62.58h4Zm-41.12,0h37.84V334.76L298,343.15Z"/><path class="cls-1" d="M394.18,332.87l-39,86.5h-3.34l38.56-85.28h-52.8v-3.28h56.57Z"/><path class="cls-1" d="M167.1,268.94a51.34,51.34,0,0,1-18.94-3.3,48.67,48.67,0,0,1-14.64-9,55.4,55.4,0,0,1-10.8-13.36,80.9,80.9,0,0,1-7.28-16.49,115.21,115.21,0,0,1-4.15-18.27,132.16,132.16,0,0,1-1.36-18.69V154.67a135.82,135.82,0,0,1,1.3-18.56,112.24,112.24,0,0,1,4.07-18.33,83.45,83.45,0,0,1,7.23-16.57A56,56,0,0,1,133.2,87.78a46.94,46.94,0,0,1,14.57-9,51.57,51.57,0,0,1,19.07-3.32,51.61,51.61,0,0,1,19.07,3.32,47.5,47.5,0,0,1,14.57,9,55,55,0,0,1,10.67,13.35,86.45,86.45,0,0,1,7.29,16.58,103.27,103.27,0,0,1,4.07,18.3,164.06,164.06,0,0,1,1.37,18.73v35.16a163.71,163.71,0,0,1-1.37,18.7,105.55,105.55,0,0,1-4,18.26,86.44,86.44,0,0,1-7.16,16.51,53.69,53.69,0,0,1-10.6,13.35,47.76,47.76,0,0,1-14.57,9A51.71,51.71,0,0,1,167.1,268.94Zm-48.17-44.59.27.87a81.18,81.18,0,0,0,6.56,15.18A51.39,51.39,0,0,0,135.63,253a44.54,44.54,0,0,0,13.64,8.63,47.08,47.08,0,0,0,17.83,3.2,46.54,46.54,0,0,0,18.1-3.34,44.38,44.38,0,0,0,13.79-9,52.49,52.49,0,0,0,9.8-13.11,82.24,82.24,0,0,0,6.35-15.78,110.67,110.67,0,0,0,3.46-17.1,164.66,164.66,0,0,0,1.19-17V154.67c-.09-4.26-.33-8.6-.72-12.93a122.9,122.9,0,0,0-1.93-13.09l-.56-2.75ZM166.84,79.54a47.39,47.39,0,0,0-18.17,3.26,44.38,44.38,0,0,0-13.78,8.9A51.31,51.31,0,0,0,125,104.81a81.72,81.72,0,0,0-6.35,15.78,114.32,114.32,0,0,0-3.52,17.09,131.86,131.86,0,0,0-1.14,17v34.92a139.16,139.16,0,0,0,.73,14,105.5,105.5,0,0,0,2.47,14.18l.64,2.6,97.66-98.47-.24-.85a81.57,81.57,0,0,0-6.42-15.92,53.22,53.22,0,0,0-9.93-13.23,44.6,44.6,0,0,0-13.85-9A47,47,0,0,0,166.84,79.54Z"/><polygon class="cls-1" points="383.74 268.94 329.46 201.37 275.46 268.94 269.97 268.94 326.93 197.6 272.86 129.92 278.48 129.92 329.6 193.83 380.59 129.92 386.2 129.92 332.14 197.6 389.09 268.94 383.74 268.94"/><use width="29.09" height="16.07" transform="translate(397.9 129.92)" xlink:href="#New_Symbol_1"/></svg>